<svg width="166" height="50" viewBox="0 0 166 50" fill="none" xmlns="http://www.w3.org/2000/svg">
<path d="M41.66 22V8H48.02C49.54 8 50.88 8.29333 52.04 8.88C53.2 9.45333 54.1067 10.26 54.76 11.3C55.4133 12.34 55.74 13.5733 55.74 15C55.74 16.4133 55.4133 17.6467 54.76 18.7C54.1067 19.74 53.2 20.5533 52.04 21.14C50.88 21.7133 49.54 22 48.02 22H41.66ZM44.9 19.34H47.86C48.7933 19.34 49.6 19.1667 50.28 18.82C50.9733 18.46 51.5067 17.9533 51.88 17.3C52.2667 16.6467 52.46 15.88 52.46 15C52.46 14.1067 52.2667 13.34 51.88 12.7C51.5067 12.0467 50.9733 11.5467 50.28 11.2C49.6 10.84 48.7933 10.66 47.86 10.66H44.9V19.34ZM57.9634 22V11.24H61.0834V22H57.9634ZM59.5234 9.74C58.9501 9.74 58.4834 9.57333 58.1234 9.24C57.7634 8.90667 57.5834 8.49333 57.5834 8C57.5834 7.50667 57.7634 7.09333 58.1234 6.76C58.4834 6.42667 58.9501 6.26 59.5234 6.26C60.0968 6.26 60.5634 6.42 60.9234 6.74C61.2834 7.04667 61.4634 7.44667 61.4634 7.94C61.4634 8.46 61.2834 8.89333 60.9234 9.24C60.5768 9.57333 60.1101 9.74 59.5234 9.74ZM70.3391 22.16C69.4324 22.16 68.6391 21.96 67.9591 21.56C67.2791 21.16 66.7457 20.5533 66.3591 19.74C65.9857 18.9133 65.7991 17.8733 65.7991 16.62C65.7991 15.3533 65.9791 14.3133 66.3391 13.5C66.6991 12.6867 67.2191 12.08 67.8991 11.68C68.5791 11.28 69.3924 11.08 70.3391 11.08C71.3524 11.08 72.2591 11.3133 73.0591 11.78C73.8724 12.2333 74.5124 12.8733 74.9791 13.7C75.4591 14.5267 75.6991 15.5 75.6991 16.62C75.6991 17.7533 75.4591 18.7333 74.9791 19.56C74.5124 20.3867 73.8724 21.0267 73.0591 21.48C72.2591 21.9333 71.3524 22.16 70.3391 22.16ZM63.9791 25.88V11.24H66.9591V13.44L66.8991 16.64L67.0991 19.82V25.88H63.9791ZM69.7991 19.6C70.3191 19.6 70.7791 19.48 71.1791 19.24C71.5924 19 71.9191 18.66 72.1591 18.22C72.4124 17.7667 72.5391 17.2333 72.5391 16.62C72.5391 15.9933 72.4124 15.46 72.1591 15.02C71.9191 14.58 71.5924 14.24 71.1791 14C70.7791 13.76 70.3191 13.64 69.7991 13.64C69.2791 13.64 68.8124 13.76 68.3991 14C67.9857 14.24 67.6591 14.58 67.4191 15.02C67.1791 15.46 67.0591 15.9933 67.0591 16.62C67.0591 17.2333 67.1791 17.7667 67.4191 18.22C67.6591 18.66 67.9857 19 68.3991 19.24C68.8124 19.48 69.2791 19.6 69.7991 19.6ZM77.7877 22V7.16H80.9077V22H77.7877ZM88.9233 22.16C87.7766 22.16 86.7566 21.92 85.8633 21.44C84.9833 20.96 84.2833 20.3067 83.7633 19.48C83.2566 18.64 83.0033 17.6867 83.0033 16.62C83.0033 15.54 83.2566 14.5867 83.7633 13.76C84.2833 12.92 84.9833 12.2667 85.8633 11.8C86.7566 11.32 87.7766 11.08 88.9233 11.08C90.0566 11.08 91.0699 11.32 91.9633 11.8C92.8566 12.2667 93.5566 12.9133 94.0633 13.74C94.5699 14.5667 94.8233 15.5267 94.8233 16.62C94.8233 17.6867 94.5699 18.64 94.0633 19.48C93.5566 20.3067 92.8566 20.96 91.9633 21.44C91.0699 21.92 90.0566 22.16 88.9233 22.16ZM88.9233 19.6C89.4433 19.6 89.9099 19.48 90.3233 19.24C90.7366 19 91.0633 18.66 91.3033 18.22C91.5433 17.7667 91.6633 17.2333 91.6633 16.62C91.6633 15.9933 91.5433 15.46 91.3033 15.02C91.0633 14.58 90.7366 14.24 90.3233 14C89.9099 13.76 89.4433 13.64 88.9233 13.64C88.4033 13.64 87.9366 13.76 87.5233 14C87.1099 14.24 86.7766 14.58 86.5233 15.02C86.2833 15.46 86.1633 15.9933 86.1633 16.62C86.1633 17.2333 86.2833 17.7667 86.5233 18.22C86.7766 18.66 87.1099 19 87.5233 19.24C87.9366 19.48 88.4033 19.6 88.9233 19.6ZM110.689 11.08C111.542 11.08 112.295 11.2533 112.949 11.6C113.615 11.9333 114.135 12.4533 114.509 13.16C114.895 13.8533 115.089 14.7467 115.089 15.84V22H111.969V16.32C111.969 15.4533 111.789 14.8133 111.429 14.4C111.069 13.9867 110.562 13.78 109.909 13.78C109.455 13.78 109.049 13.8867 108.689 14.1C108.329 14.3 108.049 14.6067 107.849 15.02C107.649 15.4333 107.549 15.96 107.549 16.6V22H104.429V16.32C104.429 15.4533 104.249 14.8133 103.889 14.4C103.542 13.9867 103.042 13.78 102.389 13.78C101.935 13.78 101.529 13.8867 101.169 14.1C100.809 14.3 100.529 14.6067 100.329 15.02C100.129 15.4333 100.029 15.96 100.029 16.6V22H96.9088V11.24H99.8888V14.18L99.3288 13.32C99.7021 12.5867 100.229 12.0333 100.909 11.66C101.602 11.2733 102.389 11.08 103.269 11.08C104.255 11.08 105.115 11.3333 105.849 11.84C106.595 12.3333 107.089 13.0933 107.329 14.12L106.229 13.82C106.589 12.98 107.162 12.3133 107.949 11.82C108.749 11.3267 109.662 11.08 110.689 11.08ZM124.485 22V19.9L124.285 19.44V15.68C124.285 15.0133 124.079 14.4933 123.665 14.12C123.265 13.7467 122.645 13.56 121.805 13.56C121.232 13.56 120.665 13.6533 120.105 13.84C119.559 14.0133 119.092 14.2533 118.705 14.56L117.585 12.38C118.172 11.9667 118.879 11.6467 119.705 11.42C120.532 11.1933 121.372 11.08 122.225 11.08C123.865 11.08 125.139 11.4667 126.045 12.24C126.952 13.0133 127.405 14.22 127.405 15.86V22H124.485ZM121.205 22.16C120.365 22.16 119.645 22.02 119.045 21.74C118.445 21.4467 117.985 21.0533 117.665 20.56C117.345 20.0667 117.185 19.5133 117.185 18.9C117.185 18.26 117.339 17.7 117.645 17.22C117.965 16.74 118.465 16.3667 119.145 16.1C119.825 15.82 120.712 15.68 121.805 15.68H124.665V17.5H122.145C121.412 17.5 120.905 17.62 120.625 17.86C120.359 18.1 120.225 18.4 120.225 18.76C120.225 19.16 120.379 19.48 120.685 19.72C121.005 19.9467 121.439 20.06 121.985 20.06C122.505 20.06 122.972 19.94 123.385 19.7C123.799 19.4467 124.099 19.08 124.285 18.6L124.765 20.04C124.539 20.7333 124.125 21.26 123.525 21.62C122.925 21.98 122.152 22.16 121.205 22.16ZM134.629 22.16C133.362 22.16 132.376 21.84 131.669 21.2C130.962 20.5467 130.609 19.58 130.609 18.3V8.86H133.729V18.26C133.729 18.7133 133.849 19.0667 134.089 19.32C134.329 19.56 134.656 19.68 135.069 19.68C135.562 19.68 135.982 19.5467 136.329 19.28L137.169 21.48C136.849 21.7067 136.462 21.88 136.009 22C135.569 22.1067 135.109 22.16 134.629 22.16ZM128.949 13.88V11.48H136.409V13.88H128.949ZM138.92 22V11.24H142.04V22H138.92ZM140.48 9.74C139.907 9.74 139.44 9.57333 139.08 9.24C138.72 8.90667 138.54 8.49333 138.54 8C138.54 7.50667 138.72 7.09333 139.08 6.76C139.44 6.42667 139.907 6.26 140.48 6.26C141.054 6.26 141.52 6.42 141.88 6.74C142.24 7.04667 142.42 7.44667 142.42 7.94C142.42 8.46 142.24 8.89333 141.88 9.24C141.534 9.57333 141.067 9.74 140.48 9.74ZM150.136 22.16C148.976 22.16 147.943 21.9267 147.036 21.46C146.129 20.98 145.416 20.32 144.896 19.48C144.389 18.64 144.136 17.6867 144.136 16.62C144.136 15.54 144.389 14.5867 144.896 13.76C145.416 12.92 146.129 12.2667 147.036 11.8C147.943 11.32 148.976 11.08 150.136 11.08C151.269 11.08 152.256 11.32 153.096 11.8C153.936 12.2667 154.556 12.94 154.956 13.82L152.536 15.12C152.256 14.6133 151.903 14.24 151.476 14C151.063 13.76 150.609 13.64 150.116 13.64C149.583 13.64 149.103 13.76 148.676 14C148.249 14.24 147.909 14.58 147.656 15.02C147.416 15.46 147.296 15.9933 147.296 16.62C147.296 17.2467 147.416 17.78 147.656 18.22C147.909 18.66 148.249 19 148.676 19.24C149.103 19.48 149.583 19.6 150.116 19.6C150.609 19.6 151.063 19.4867 151.476 19.26C151.903 19.02 152.256 18.64 152.536 18.12L154.956 19.44C154.556 20.3067 153.936 20.98 153.096 21.46C152.256 21.9267 151.269 22.16 150.136 22.16ZM51.26 29H54.5V43H51.26V29ZM44.9 43H41.66V29H44.9V43ZM51.5 37.26H44.66V34.52H51.5V37.26ZM62.9323 43.16C61.7057 43.16 60.6257 42.92 59.6923 42.44C58.7723 41.96 58.059 41.3067 57.5523 40.48C57.0457 39.64 56.7923 38.6867 56.7923 37.62C56.7923 36.54 57.039 35.5867 57.5323 34.76C58.039 33.92 58.7257 33.2667 59.5923 32.8C60.459 32.32 61.439 32.08 62.5323 32.08C63.5857 32.08 64.5323 32.3067 65.3723 32.76C66.2257 33.2 66.899 33.84 67.3923 34.68C67.8857 35.5067 68.1323 36.5 68.1323 37.66C68.1323 37.78 68.1257 37.92 68.1123 38.08C68.099 38.2267 68.0857 38.3667 68.0723 38.5H59.3323V36.68H66.4323L65.2323 37.22C65.2323 36.66 65.119 36.1733 64.8923 35.76C64.6657 35.3467 64.3523 35.0267 63.9523 34.8C63.5523 34.56 63.0857 34.44 62.5523 34.44C62.019 34.44 61.5457 34.56 61.1323 34.8C60.7323 35.0267 60.419 35.3533 60.1923 35.78C59.9657 36.1933 59.8523 36.6867 59.8523 37.26V37.74C59.8523 38.3267 59.979 38.8467 60.2323 39.3C60.499 39.74 60.8657 40.08 61.3323 40.32C61.8123 40.5467 62.3723 40.66 63.0123 40.66C63.5857 40.66 64.0857 40.5733 64.5123 40.4C64.9523 40.2267 65.3523 39.9667 65.7123 39.62L67.3723 41.42C66.879 41.98 66.259 42.4133 65.5123 42.72C64.7657 43.0133 63.9057 43.16 62.9323 43.16ZM70.2095 43V32.24H73.1895V35.28L72.7695 34.4C73.0895 33.64 73.6029 33.0667 74.3095 32.68C75.0162 32.28 75.8762 32.08 76.8895 32.08V34.96C76.7562 34.9467 76.6362 34.94 76.5295 34.94C76.4229 34.9267 76.3095 34.92 76.1895 34.92C75.3362 34.92 74.6429 35.1667 74.1095 35.66C73.5895 36.14 73.3295 36.8933 73.3295 37.92V43H70.2095ZM83.767 43.16C82.6204 43.16 81.6004 42.92 80.707 42.44C79.827 41.96 79.127 41.3067 78.607 40.48C78.1004 39.64 77.847 38.6867 77.847 37.62C77.847 36.54 78.1004 35.5867 78.607 34.76C79.127 33.92 79.827 33.2667 80.707 32.8C81.6004 32.32 82.6204 32.08 83.767 32.08C84.9004 32.08 85.9137 32.32 86.807 32.8C87.7004 33.2667 88.4004 33.9133 88.907 34.74C89.4137 35.5667 89.667 36.5267 89.667 37.62C89.667 38.6867 89.4137 39.64 88.907 40.48C88.4004 41.3067 87.7004 41.96 86.807 42.44C85.9137 42.92 84.9004 43.16 83.767 43.16ZM83.767 40.6C84.287 40.6 84.7537 40.48 85.167 40.24C85.5804 40 85.907 39.66 86.147 39.22C86.387 38.7667 86.507 38.2333 86.507 37.62C86.507 36.9933 86.387 36.46 86.147 36.02C85.907 35.58 85.5804 35.24 85.167 35C84.7537 34.76 84.287 34.64 83.767 34.64C83.247 34.64 82.7804 34.76 82.367 35C81.9537 35.24 81.6204 35.58 81.367 36.02C81.127 36.46 81.007 36.9933 81.007 37.62C81.007 38.2333 81.127 38.7667 81.367 39.22C81.6204 39.66 81.9537 40 82.367 40.24C82.7804 40.48 83.247 40.6 83.767 40.6ZM97.0925 43.16C95.8658 43.16 94.7858 42.92 93.8525 42.44C92.9325 41.96 92.2192 41.3067 91.7125 40.48C91.2058 39.64 90.9525 38.6867 90.9525 37.62C90.9525 36.54 91.1992 35.5867 91.6925 34.76C92.1992 33.92 92.8858 33.2667 93.7525 32.8C94.6192 32.32 95.5992 32.08 96.6925 32.08C97.7458 32.08 98.6925 32.3067 99.5325 32.76C100.386 33.2 101.059 33.84 101.553 34.68C102.046 35.5067 102.293 36.5 102.293 37.66C102.293 37.78 102.286 37.92 102.273 38.08C102.259 38.2267 102.246 38.3667 102.233 38.5H93.4925V36.68H100.592L99.3925 37.22C99.3925 36.66 99.2792 36.1733 99.0525 35.76C98.8258 35.3467 98.5125 35.0267 98.1125 34.8C97.7125 34.56 97.2458 34.44 96.7125 34.44C96.1792 34.44 95.7058 34.56 95.2925 34.8C94.8925 35.0267 94.5792 35.3533 94.3525 35.78C94.1258 36.1933 94.0125 36.6867 94.0125 37.26V37.74C94.0125 38.3267 94.1392 38.8467 94.3925 39.3C94.6592 39.74 95.0258 40.08 95.4925 40.32C95.9725 40.5467 96.5325 40.66 97.1725 40.66C97.7458 40.66 98.2458 40.5733 98.6725 40.4C99.1125 40.2267 99.5125 39.9667 99.8725 39.62L101.533 41.42C101.039 41.98 100.419 42.4133 99.6725 42.72C98.9258 43.0133 98.0658 43.16 97.0925 43.16ZM107.99 43.16C107.07 43.16 106.183 43.0533 105.33 42.84C104.49 42.6133 103.823 42.3333 103.33 42L104.37 39.76C104.863 40.0667 105.443 40.32 106.11 40.52C106.79 40.7067 107.456 40.8 108.11 40.8C108.83 40.8 109.336 40.7133 109.63 40.54C109.936 40.3667 110.09 40.1267 110.09 39.82C110.09 39.5667 109.97 39.38 109.73 39.26C109.503 39.1267 109.196 39.0267 108.81 38.96C108.423 38.8933 107.996 38.8267 107.53 38.76C107.076 38.6933 106.616 38.6067 106.15 38.5C105.683 38.38 105.256 38.2067 104.87 37.98C104.483 37.7533 104.17 37.4467 103.93 37.06C103.703 36.6733 103.59 36.1733 103.59 35.56C103.59 34.88 103.783 34.28 104.17 33.76C104.57 33.24 105.143 32.8333 105.89 32.54C106.636 32.2333 107.53 32.08 108.57 32.08C109.303 32.08 110.05 32.16 110.81 32.32C111.57 32.48 112.203 32.7133 112.71 33.02L111.67 35.24C111.15 34.9333 110.623 34.7267 110.09 34.62C109.57 34.5 109.063 34.44 108.57 34.44C107.876 34.44 107.37 34.5333 107.05 34.72C106.73 34.9067 106.57 35.1467 106.57 35.44C106.57 35.7067 106.683 35.9067 106.91 36.04C107.15 36.1733 107.463 36.28 107.85 36.36C108.236 36.44 108.656 36.5133 109.11 36.58C109.576 36.6333 110.043 36.72 110.51 36.84C110.976 36.96 111.396 37.1333 111.77 37.36C112.156 37.5733 112.47 37.8733 112.71 38.26C112.95 38.6333 113.07 39.1267 113.07 39.74C113.07 40.4067 112.87 41 112.47 41.52C112.07 42.0267 111.49 42.4267 110.73 42.72C109.983 43.0133 109.07 43.16 107.99 43.16Z" fill="#E4E6E8"/>
<path d="M19.584 42L23.712 8.4H26.304L22.176 42H19.584ZM1.392 32.88V30.24H30.432V32.88H1.392ZM7.104 42L11.232 8.4H13.872L9.696 42H7.104ZM2.928 20.16V17.52H31.968V20.16H2.928Z" fill="#E4E6E8"/>
</svg>
