<svg width="112" height="34" viewBox="0 0 112 34" fill="none" xmlns="http://www.w3.org/2000/svg">
<path d="M28.6401 14.6797V5.32812H32.8884C33.9037 5.32812 34.7988 5.52406 35.5736 5.91594C36.3484 6.29891 36.9541 6.83773 37.3905 7.53242C37.8269 8.22711 38.0451 9.05094 38.0451 10.0039C38.0451 10.948 37.8269 11.7718 37.3905 12.4754C36.9541 13.1701 36.3484 13.7134 35.5736 14.1052C34.7988 14.4882 33.9037 14.6797 32.8884 14.6797H28.6401ZM30.8043 12.9029H32.7815C33.4049 12.9029 33.9438 12.7871 34.398 12.5555C34.8611 12.3151 35.2173 11.9766 35.4667 11.5402C35.725 11.1038 35.8541 10.5917 35.8541 10.0039C35.8541 9.40719 35.725 8.89508 35.4667 8.46758C35.2173 8.03117 34.8611 7.69719 34.398 7.46562C33.9438 7.22516 33.4049 7.10492 32.7815 7.10492H30.8043V12.9029ZM39.5303 14.6797V7.49234H41.6143V14.6797H39.5303ZM40.5723 6.49039C40.1893 6.49039 39.8776 6.37906 39.6371 6.15641C39.3967 5.93375 39.2764 5.65766 39.2764 5.32812C39.2764 4.99859 39.3967 4.7225 39.6371 4.49984C39.8776 4.27719 40.1893 4.16586 40.5723 4.16586C40.9553 4.16586 41.267 4.27273 41.5075 4.48648C41.7479 4.69133 41.8682 4.95852 41.8682 5.28805C41.8682 5.63539 41.7479 5.92484 41.5075 6.15641C41.2759 6.37906 40.9642 6.49039 40.5723 6.49039ZM47.7968 14.7866C47.1912 14.7866 46.6612 14.653 46.207 14.3858C45.7528 14.1186 45.3966 13.7134 45.1383 13.1701C44.8889 12.6179 44.7642 11.9232 44.7642 11.086C44.7642 10.2399 44.8845 9.54523 45.1249 9.00195C45.3654 8.45867 45.7127 8.05344 46.167 7.78625C46.6212 7.51906 47.1645 7.38547 47.7968 7.38547C48.4737 7.38547 49.0793 7.54133 49.6137 7.85305C50.157 8.15586 50.5845 8.58336 50.8962 9.13555C51.2168 9.68773 51.3771 10.3379 51.3771 11.086C51.3771 11.843 51.2168 12.4977 50.8962 13.0498C50.5845 13.602 50.157 14.0295 49.6137 14.3323C49.0793 14.6352 48.4737 14.7866 47.7968 14.7866ZM43.5485 17.2714V7.49234H45.5391V8.96187L45.499 11.0994L45.6326 13.2235V17.2714H43.5485ZM47.4361 13.0766C47.7834 13.0766 48.0907 12.9964 48.3579 12.8361C48.634 12.6758 48.8522 12.4487 49.0125 12.1548C49.1817 11.852 49.2663 11.4957 49.2663 11.086C49.2663 10.6674 49.1817 10.3112 49.0125 10.0173C48.8522 9.72336 48.634 9.49625 48.3579 9.33594C48.0907 9.17562 47.7834 9.09547 47.4361 9.09547C47.0887 9.09547 46.777 9.17562 46.5009 9.33594C46.2248 9.49625 46.0066 9.72336 45.8463 10.0173C45.686 10.3112 45.6059 10.6674 45.6059 11.086C45.6059 11.4957 45.686 11.852 45.8463 12.1548C46.0066 12.4487 46.2248 12.6758 46.5009 12.8361C46.777 12.9964 47.0887 13.0766 47.4361 13.0766ZM52.7722 14.6797V4.76703H54.8563V14.6797H52.7722ZM60.2105 14.7866C59.4445 14.7866 58.7632 14.6262 58.1665 14.3056C57.5787 13.985 57.1111 13.5486 56.7638 12.9964C56.4253 12.4353 56.2561 11.7985 56.2561 11.086C56.2561 10.3646 56.4253 9.72781 56.7638 9.17562C57.1111 8.61453 57.5787 8.17812 58.1665 7.86641C58.7632 7.54578 59.4445 7.38547 60.2105 7.38547C60.9675 7.38547 61.6444 7.54578 62.2411 7.86641C62.8378 8.17812 63.3054 8.61008 63.6438 9.16227C63.9823 9.71445 64.1515 10.3557 64.1515 11.086C64.1515 11.7985 63.9823 12.4353 63.6438 12.9964C63.3054 13.5486 62.8378 13.985 62.2411 14.3056C61.6444 14.6262 60.9675 14.7866 60.2105 14.7866ZM60.2105 13.0766C60.5578 13.0766 60.8695 12.9964 61.1456 12.8361C61.4217 12.6758 61.6399 12.4487 61.8002 12.1548C61.9606 11.852 62.0407 11.4957 62.0407 11.086C62.0407 10.6674 61.9606 10.3112 61.8002 10.0173C61.6399 9.72336 61.4217 9.49625 61.1456 9.33594C60.8695 9.17562 60.5578 9.09547 60.2105 9.09547C59.8631 9.09547 59.5514 9.17562 59.2753 9.33594C58.9992 9.49625 58.7766 9.72336 58.6073 10.0173C58.447 10.3112 58.3669 10.6674 58.3669 11.086C58.3669 11.4957 58.447 11.852 58.6073 12.1548C58.7766 12.4487 58.9992 12.6758 59.2753 12.8361C59.5514 12.9964 59.8631 13.0766 60.2105 13.0766ZM74.7491 7.38547C75.3191 7.38547 75.8223 7.50125 76.2587 7.73281C76.704 7.95547 77.0514 8.30281 77.3008 8.77484C77.559 9.23797 77.6882 9.83469 77.6882 10.565V14.6797H75.6041V10.8856C75.6041 10.3067 75.4839 9.87922 75.2434 9.60312C75.003 9.32703 74.6645 9.18898 74.2281 9.18898C73.9253 9.18898 73.6537 9.26023 73.4132 9.40273C73.1727 9.53633 72.9857 9.74117 72.8521 10.0173C72.7185 10.2934 72.6517 10.6452 72.6517 11.0727V14.6797H70.5676V10.8856C70.5676 10.3067 70.4474 9.87922 70.2069 9.60312C69.9754 9.32703 69.6414 9.18898 69.205 9.18898C68.9022 9.18898 68.6305 9.26023 68.3901 9.40273C68.1496 9.53633 67.9626 9.74117 67.829 10.0173C67.6954 10.2934 67.6286 10.6452 67.6286 11.0727V14.6797H65.5445V7.49234H67.5351V9.45617L67.161 8.88172C67.4104 8.39187 67.7622 8.02227 68.2164 7.77289C68.6795 7.51461 69.205 7.38547 69.7928 7.38547C70.4519 7.38547 71.0263 7.55469 71.5162 7.89312C72.0149 8.22266 72.3444 8.73031 72.5048 9.41609L71.77 9.2157C72.0105 8.65461 72.3934 8.2093 72.9189 7.87977C73.4533 7.55023 74.0633 7.38547 74.7491 7.38547ZM83.9648 14.6797V13.277L83.8312 12.9697V10.4581C83.8312 10.0128 83.6932 9.66547 83.4171 9.41609C83.1499 9.16672 82.7357 9.04203 82.1746 9.04203C81.7917 9.04203 81.4132 9.10437 81.0391 9.22906C80.6739 9.34484 80.3622 9.50516 80.1039 9.71L79.3558 8.25383C79.7477 7.97773 80.2197 7.76398 80.7719 7.61258C81.3241 7.46117 81.8852 7.38547 82.4552 7.38547C83.5507 7.38547 84.4012 7.64375 85.0068 8.16031C85.6125 8.67687 85.9153 9.48289 85.9153 10.5784V14.6797H83.9648ZM81.7739 14.7866C81.2128 14.7866 80.7318 14.693 80.331 14.506C79.9303 14.3101 79.623 14.0473 79.4093 13.7178C79.1955 13.3883 79.0886 13.0187 79.0886 12.609C79.0886 12.1815 79.191 11.8074 79.3959 11.4868C79.6096 11.1662 79.9436 10.9168 80.3978 10.7387C80.8521 10.5516 81.4443 10.4581 82.1746 10.4581H84.085V11.6738H82.4018C81.9119 11.6738 81.5735 11.754 81.3864 11.9143C81.2083 12.0746 81.1193 12.275 81.1193 12.5155C81.1193 12.7827 81.2217 12.9964 81.4265 13.1567C81.6403 13.3081 81.9297 13.3838 82.2949 13.3838C82.6422 13.3838 82.9539 13.3037 83.23 13.1434C83.5061 12.9741 83.7065 12.7292 83.8312 12.4086L84.1518 13.3705C84.0004 13.8336 83.7243 14.1854 83.3235 14.4259C82.9228 14.6663 82.4062 14.7866 81.7739 14.7866ZM90.7405 14.7866C89.8944 14.7866 89.2354 14.5728 88.7633 14.1453C88.2913 13.7089 88.0553 13.0632 88.0553 12.2082V5.90258H90.1393V12.1815C90.1393 12.4843 90.2195 12.7203 90.3798 12.8895C90.5401 13.0498 90.7583 13.13 91.0344 13.13C91.3639 13.13 91.6445 13.0409 91.8761 12.8628L92.4371 14.3323C92.2234 14.4837 91.9651 14.5995 91.6623 14.6797C91.3684 14.7509 91.0611 14.7866 90.7405 14.7866ZM86.9464 9.25578V7.65266H91.9295V9.25578H86.9464ZM93.607 14.6797V7.49234H95.6911V14.6797H93.607ZM94.6491 6.49039C94.2661 6.49039 93.9544 6.37906 93.7139 6.15641C93.4734 5.93375 93.3532 5.65766 93.3532 5.32812C93.3532 4.99859 93.4734 4.7225 93.7139 4.49984C93.9544 4.27719 94.2661 4.16586 94.6491 4.16586C95.032 4.16586 95.3438 4.27273 95.5842 4.48648C95.8247 4.69133 95.9449 4.95852 95.9449 5.28805C95.9449 5.63539 95.8247 5.92484 95.5842 6.15641C95.3527 6.37906 95.0409 6.49039 94.6491 6.49039ZM101.099 14.7866C100.324 14.7866 99.6336 14.6307 99.028 14.319C98.4224 13.9984 97.9459 13.5575 97.5986 12.9964C97.2601 12.4353 97.0909 11.7985 97.0909 11.086C97.0909 10.3646 97.2601 9.72781 97.5986 9.17562C97.9459 8.61453 98.4224 8.17812 99.028 7.86641C99.6336 7.54578 100.324 7.38547 101.099 7.38547C101.856 7.38547 102.515 7.54578 103.076 7.86641C103.637 8.17812 104.051 8.62789 104.318 9.2157L102.702 10.0841C102.515 9.74562 102.279 9.49625 101.994 9.33594C101.718 9.17562 101.415 9.09547 101.085 9.09547C100.729 9.09547 100.408 9.17562 100.123 9.33594C99.8385 9.49625 99.6114 9.72336 99.4422 10.0173C99.2818 10.3112 99.2017 10.6674 99.2017 11.086C99.2017 11.5046 99.2818 11.8609 99.4422 12.1548C99.6114 12.4487 99.8385 12.6758 100.123 12.8361C100.408 12.9964 100.729 13.0766 101.085 13.0766C101.415 13.0766 101.718 13.0009 101.994 12.8495C102.279 12.6891 102.515 12.4353 102.702 12.088L104.318 12.9697C104.051 13.5486 103.637 13.9984 103.076 14.319C102.515 14.6307 101.856 14.7866 101.099 14.7866ZM35.0526 19.3281H37.2168V28.6797H35.0526V19.3281ZM30.8043 28.6797H28.6401V19.3281H30.8043V28.6797ZM35.2129 24.8455H30.644V23.0153H35.2129V24.8455ZM42.8493 28.7866C42.03 28.7866 41.3086 28.6262 40.6851 28.3056C40.0706 27.985 39.5941 27.5486 39.2557 26.9964C38.9172 26.4353 38.748 25.7985 38.748 25.086C38.748 24.3646 38.9128 23.7278 39.2423 23.1756C39.5807 22.6145 40.0394 22.1781 40.6183 21.8664C41.1972 21.5458 41.8518 21.3855 42.5822 21.3855C43.2857 21.3855 43.9181 21.5369 44.4792 21.8397C45.0492 22.1336 45.4989 22.5611 45.8285 23.1222C46.158 23.6744 46.3228 24.3379 46.3228 25.1127C46.3228 25.1929 46.3183 25.2864 46.3094 25.3933C46.3005 25.4912 46.2916 25.5848 46.2827 25.6738H40.4447V24.4581H45.1872L44.3857 24.8188C44.3857 24.4448 44.31 24.1197 44.1586 23.8436C44.0072 23.5675 43.7979 23.3537 43.5307 23.2023C43.2635 23.042 42.9518 22.9619 42.5955 22.9619C42.2393 22.9619 41.9231 23.042 41.647 23.2023C41.3798 23.3537 41.1705 23.572 41.0191 23.857C40.8677 24.133 40.792 24.4626 40.792 24.8455V25.1662C40.792 25.558 40.8766 25.9054 41.0458 26.2082C41.2239 26.5021 41.4689 26.7292 41.7806 26.8895C42.1012 27.0409 42.4753 27.1166 42.9028 27.1166C43.2857 27.1166 43.6197 27.0587 43.9047 26.943C44.1986 26.8272 44.4658 26.6535 44.7063 26.422L45.8151 27.6243C45.4856 27.9984 45.0714 28.2878 44.5727 28.4927C44.0739 28.6886 43.4995 28.7866 42.8493 28.7866ZM47.7103 28.6797V21.4923H49.7008V23.523L49.4203 22.9352C49.634 22.4275 49.9769 22.0445 50.4489 21.7862C50.921 21.5191 51.4954 21.3855 52.1723 21.3855V23.3092C52.0832 23.3003 52.0031 23.2959 51.9318 23.2959C51.8606 23.287 51.7849 23.2825 51.7047 23.2825C51.1347 23.2825 50.6716 23.4473 50.3154 23.7768C49.968 24.0974 49.7943 24.6006 49.7943 25.2864V28.6797H47.7103ZM56.7793 28.7866C56.0134 28.7866 55.332 28.6262 54.7353 28.3056C54.1475 27.985 53.6799 27.5486 53.3326 26.9964C52.9941 26.4353 52.8249 25.7985 52.8249 25.086C52.8249 24.3646 52.9941 23.7278 53.3326 23.1756C53.6799 22.6145 54.1475 22.1781 54.7353 21.8664C55.332 21.5458 56.0134 21.3855 56.7793 21.3855C57.5363 21.3855 58.2132 21.5458 58.8099 21.8664C59.4066 22.1781 59.8742 22.6101 60.2127 23.1623C60.5511 23.7145 60.7203 24.3557 60.7203 25.086C60.7203 25.7985 60.5511 26.4353 60.2127 26.9964C59.8742 27.5486 59.4066 27.985 58.8099 28.3056C58.2132 28.6262 57.5363 28.7866 56.7793 28.7866ZM56.7793 27.0766C57.1266 27.0766 57.4384 26.9964 57.7145 26.8361C57.9906 26.6758 58.2088 26.4487 58.3691 26.1548C58.5294 25.852 58.6095 25.4957 58.6095 25.086C58.6095 24.6674 58.5294 24.3112 58.3691 24.0173C58.2088 23.7234 57.9906 23.4962 57.7145 23.3359C57.4384 23.1756 57.1266 23.0955 56.7793 23.0955C56.432 23.0955 56.1202 23.1756 55.8441 23.3359C55.5681 23.4962 55.3454 23.7234 55.1762 24.0173C55.0159 24.3112 54.9357 24.6674 54.9357 25.086C54.9357 25.4957 55.0159 25.852 55.1762 26.1548C55.3454 26.4487 55.5681 26.6758 55.8441 26.8361C56.1202 26.9964 56.432 27.0766 56.7793 27.0766ZM65.6803 28.7866C64.8609 28.7866 64.1395 28.6262 63.5161 28.3056C62.9016 27.985 62.4251 27.5486 62.0866 26.9964C61.7482 26.4353 61.579 25.7985 61.579 25.086C61.579 24.3646 61.7437 23.7278 62.0733 23.1756C62.4117 22.6145 62.8704 22.1781 63.4493 21.8664C64.0282 21.5458 64.6828 21.3855 65.4131 21.3855C66.1167 21.3855 66.7491 21.5369 67.3101 21.8397C67.8801 22.1336 68.3299 22.5611 68.6594 23.1222C68.989 23.6744 69.1537 24.3379 69.1537 25.1127C69.1537 25.1929 69.1493 25.2864 69.1404 25.3933C69.1315 25.4912 69.1226 25.5848 69.1137 25.6738H63.2756V24.4581H68.0182L67.2166 24.8188C67.2166 24.4448 67.1409 24.1197 66.9895 23.8436C66.8381 23.5675 66.6288 23.3537 66.3616 23.2023C66.0944 23.042 65.7827 22.9619 65.4265 22.9619C65.0702 22.9619 64.7541 23.042 64.478 23.2023C64.2108 23.3537 64.0015 23.572 63.8501 23.857C63.6987 24.133 63.623 24.4626 63.623 24.8455V25.1662C63.623 25.558 63.7076 25.9054 63.8768 26.2082C64.0549 26.5021 64.2998 26.7292 64.6116 26.8895C64.9322 27.0409 65.3062 27.1166 65.7337 27.1166C66.1167 27.1166 66.4507 27.0587 66.7357 26.943C67.0296 26.8272 67.2968 26.6535 67.5373 26.422L68.6461 27.6243C68.3166 27.9984 67.9024 28.2878 67.4037 28.4927C66.9049 28.6886 66.3305 28.7866 65.6803 28.7866ZM72.9593 28.7866C72.3448 28.7866 71.7525 28.7153 71.1825 28.5728C70.6214 28.4214 70.1761 28.2344 69.8465 28.0117L70.5412 26.5155C70.8708 26.7203 71.2582 26.8895 71.7035 27.0231C72.1577 27.1478 72.603 27.2102 73.0394 27.2102C73.5204 27.2102 73.8588 27.1523 74.0548 27.0365C74.2596 26.9207 74.362 26.7604 74.362 26.5555C74.362 26.3863 74.2819 26.2616 74.1215 26.1815C73.9701 26.0924 73.7653 26.0256 73.507 25.9811C73.2487 25.9366 72.9637 25.892 72.652 25.8475C72.3492 25.803 72.0419 25.7451 71.7302 25.6738C71.4185 25.5937 71.1335 25.4779 70.8752 25.3265C70.6169 25.1751 70.4076 24.9702 70.2473 24.712C70.0959 24.4537 70.0202 24.1197 70.0202 23.71C70.0202 23.2558 70.1494 22.855 70.4076 22.5077C70.6748 22.1603 71.0578 21.8887 71.5565 21.6927C72.0553 21.4879 72.652 21.3855 73.3467 21.3855C73.8365 21.3855 74.3353 21.4389 74.843 21.5458C75.3506 21.6527 75.7737 21.8085 76.1121 22.0134L75.4174 23.4962C75.0701 23.2914 74.7183 23.1534 74.362 23.0821C74.0147 23.002 73.6762 22.9619 73.3467 22.9619C72.8836 22.9619 72.5451 23.0242 72.3314 23.1489C72.1176 23.2736 72.0108 23.4339 72.0108 23.6298C72.0108 23.808 72.0865 23.9416 72.2379 24.0306C72.3982 24.1197 72.6075 24.1909 72.8658 24.2444C73.124 24.2978 73.4046 24.3468 73.7074 24.3913C74.0191 24.427 74.3308 24.4848 74.6426 24.565C74.9543 24.6452 75.2348 24.7609 75.4842 24.9123C75.7425 25.0548 75.9518 25.2552 76.1121 25.5135C76.2724 25.7629 76.3526 26.0924 76.3526 26.5021C76.3526 26.9474 76.219 27.3437 75.9518 27.6911C75.6846 28.0295 75.2972 28.2967 74.7895 28.4927C74.2908 28.6886 73.6807 28.7866 72.9593 28.7866Z" fill="#272F35"/>
<path d="M13.894 28.0078L16.6514 5.56406H18.3828L15.6254 28.0078H13.894ZM1.74231 21.9159V20.1525H21.1401V21.9159H1.74231ZM5.55775 28.0078L8.31513 5.56406H10.0786L7.28913 28.0078H5.55775ZM2.76831 13.4194V11.6559H22.1661V13.4194H2.76831Z" fill="#272F35"/>
</svg>
