<svg width="24" height="25" viewBox="0 0 24 25" fill="none" xmlns="http://www.w3.org/2000/svg">
<path d="M20.75 0.875C21.413 0.875 22.0489 1.14717 22.5178 1.63164C22.9866 2.11611 23.25 2.77319 23.25 3.45833V21.5417C23.25 22.2268 22.9866 22.8839 22.5178 23.3684C22.0489 23.8528 21.413 24.125 20.75 24.125H3.25C2.58696 24.125 1.95107 23.8528 1.48223 23.3684C1.01339 22.8839 0.75 22.2268 0.75 21.5417V3.45833C0.75 2.77319 1.01339 2.11611 1.48223 1.63164C1.95107 1.14717 2.58696 0.875 3.25 0.875H20.75ZM20.125 20.8958V14.05C20.125 12.9332 19.6957 11.8622 18.9315 11.0725C18.1672 10.2828 17.1308 9.83917 16.05 9.83917C14.9875 9.83917 13.75 10.5108 13.15 11.5183V10.0846H9.6625V20.8958H13.15V14.5279C13.15 13.5333 13.925 12.7196 14.8875 12.7196C15.3516 12.7196 15.7967 12.9101 16.1249 13.2492C16.4531 13.5884 16.6375 14.0483 16.6375 14.5279V20.8958H20.125ZM5.6 8.05667C6.15695 8.05667 6.6911 7.82804 7.08492 7.42109C7.47875 7.01413 7.7 6.46219 7.7 5.88667C7.7 4.68542 6.7625 3.70375 5.6 3.70375C5.03973 3.70375 4.50241 3.93373 4.10624 4.34311C3.71007 4.75249 3.4875 5.30772 3.4875 5.88667C3.4875 7.08792 4.4375 8.05667 5.6 8.05667ZM7.3375 20.8958V10.0846H3.875V20.8958H7.3375Z" fill="#272F35"/>
</svg>
