<svg width="27" height="21" viewBox="0 0 27 21" fill="none" xmlns="http://www.w3.org/2000/svg">
<path d="M4.89062 0.53125C3.80904 0.53125 2.77175 0.960908 2.00696 1.72571C1.24216 2.4905 0.8125 3.52779 0.8125 4.60938V16.3906C0.8125 17.4722 1.24216 18.5095 2.00696 19.2743C2.77175 20.0391 3.80904 20.4688 4.89062 20.4688H22.1094C23.191 20.4688 24.2282 20.0391 24.993 19.2743C25.7578 18.5095 26.1875 17.4722 26.1875 16.3906V4.60938C26.1875 3.52779 25.7578 2.4905 24.993 1.72571C24.2282 0.960908 23.191 0.53125 22.1094 0.53125H4.89062ZM24.375 5.96875L13.5 11.8594L2.625 5.96875V4.60938C2.625 4.00849 2.8637 3.43222 3.28859 3.00734C3.71347 2.58245 4.28974 2.34375 4.89062 2.34375H22.1094C22.7103 2.34375 23.2865 2.58245 23.7114 3.00734C24.1363 3.43222 24.375 4.00849 24.375 4.60938V5.96875ZM2.625 7.48581L13.0704 13.1109C13.2025 13.182 13.3501 13.2192 13.5 13.2192C13.6499 13.2192 13.7975 13.182 13.9296 13.1109L24.375 7.48581V16.3906C24.375 16.9915 24.1363 17.5678 23.7114 17.9927C23.2865 18.4176 22.7103 18.6562 22.1094 18.6562H4.89062C4.28974 18.6562 3.71347 18.4176 3.28859 17.9927C2.8637 17.5678 2.625 16.9915 2.625 16.3906V7.48581Z" fill="#E4E6E8"/>
</svg>
