<svg width="50" height="28" viewBox="0 0 50 28" fill="none" xmlns="http://www.w3.org/2000/svg">
<path d="M5.36456 26L8.10742 20H8.73314L11.476 26H10.8074L8.28742 20.3686H8.54456L6.02456 26H5.36456ZM6.44456 24.3971L6.63314 23.8829H10.1217L10.3103 24.3971H6.44456ZM14.5943 26.0429C14.2 26.0429 13.8457 25.9543 13.5314 25.7771C13.2171 25.5943 12.9685 25.3314 12.7857 24.9886C12.6028 24.6457 12.5114 24.2314 12.5114 23.7457C12.5114 23.2543 12.6028 22.84 12.7857 22.5029C12.9743 22.16 13.2257 21.9 13.54 21.7229C13.8543 21.5457 14.2057 21.4571 14.5943 21.4571C15.0228 21.4571 15.4057 21.5543 15.7428 21.7486C16.0857 21.9371 16.3543 22.2029 16.5485 22.5457C16.7428 22.8886 16.84 23.2886 16.84 23.7457C16.84 24.1971 16.7428 24.5971 16.5485 24.9457C16.3543 25.2886 16.0857 25.5571 15.7428 25.7514C15.4057 25.9457 15.0228 26.0429 14.5943 26.0429ZM12.2714 26V19.64H12.88V22.8286L12.7943 23.7371L12.8543 24.6457V26H12.2714ZM14.5514 25.5029C14.8714 25.5029 15.1571 25.4314 15.4085 25.2886C15.66 25.14 15.86 24.9343 16.0085 24.6714C16.1571 24.4029 16.2314 24.0943 16.2314 23.7457C16.2314 23.3914 16.1571 23.0829 16.0085 22.82C15.86 22.5571 15.66 22.3543 15.4085 22.2114C15.1571 22.0629 14.8714 21.9886 14.5514 21.9886C14.2314 21.9886 13.9428 22.0629 13.6857 22.2114C13.4343 22.3543 13.2343 22.5571 13.0857 22.82C12.9428 23.0829 12.8714 23.3914 12.8714 23.7457C12.8714 24.0943 12.9428 24.4029 13.0857 24.6714C13.2343 24.9343 13.4343 25.14 13.6857 25.2886C13.9428 25.4314 14.2314 25.5029 14.5514 25.5029ZM19.8463 26.0429C19.412 26.0429 19.0205 25.9457 18.672 25.7514C18.3291 25.5514 18.0577 25.28 17.8577 24.9371C17.6577 24.5886 17.5577 24.1914 17.5577 23.7457C17.5577 23.2943 17.6577 22.8971 17.8577 22.5543C18.0577 22.2114 18.3291 21.9429 18.672 21.7486C19.0148 21.5543 19.4063 21.4571 19.8463 21.4571C20.292 21.4571 20.6863 21.5543 21.0291 21.7486C21.3777 21.9429 21.6491 22.2114 21.8434 22.5543C22.0434 22.8971 22.1434 23.2943 22.1434 23.7457C22.1434 24.1914 22.0434 24.5886 21.8434 24.9371C21.6491 25.28 21.3777 25.5514 21.0291 25.7514C20.6805 25.9457 20.2863 26.0429 19.8463 26.0429ZM19.8463 25.5029C20.172 25.5029 20.4605 25.4314 20.712 25.2886C20.9634 25.14 21.1605 24.9343 21.3034 24.6714C21.452 24.4029 21.5263 24.0943 21.5263 23.7457C21.5263 23.3914 21.452 23.0829 21.3034 22.82C21.1605 22.5571 20.9634 22.3543 20.712 22.2114C20.4605 22.0629 20.1748 21.9886 19.8548 21.9886C19.5348 21.9886 19.2491 22.0629 18.9977 22.2114C18.7463 22.3543 18.5463 22.5571 18.3977 22.82C18.2491 23.0829 18.1748 23.3914 18.1748 23.7457C18.1748 24.0943 18.2491 24.4029 18.3977 24.6714C18.5463 24.9343 18.7463 25.14 18.9977 25.2886C19.2491 25.4314 19.532 25.5029 19.8463 25.5029ZM25.1773 26.0429C24.7944 26.0429 24.4601 25.9714 24.1744 25.8286C23.8887 25.6857 23.6659 25.4714 23.5059 25.1857C23.3516 24.9 23.2744 24.5429 23.2744 24.1143V21.5H23.883V24.0457C23.883 24.5257 24.0001 24.8886 24.2344 25.1343C24.4744 25.3743 24.8087 25.4943 25.2373 25.4943C25.5516 25.4943 25.823 25.4314 26.0516 25.3057C26.2859 25.1743 26.463 24.9857 26.583 24.74C26.7087 24.4943 26.7716 24.2 26.7716 23.8571V21.5H27.3801V26H26.7973V24.7657L26.8916 24.9886C26.7487 25.32 26.5259 25.58 26.223 25.7686C25.9259 25.9514 25.5773 26.0429 25.1773 26.0429ZM30.4305 26.0429C30.0076 26.0429 29.6819 25.9286 29.4534 25.7C29.2248 25.4714 29.1105 25.1486 29.1105 24.7314V20.5057H29.7191V24.6971C29.7191 24.96 29.7848 25.1629 29.9162 25.3057C30.0534 25.4486 30.2476 25.52 30.4991 25.52C30.7676 25.52 30.9905 25.4429 31.1676 25.2886L31.3819 25.7257C31.2619 25.8343 31.1162 25.9143 30.9448 25.9657C30.7791 26.0171 30.6076 26.0429 30.4305 26.0429ZM28.3048 22.0057V21.5H31.0905V22.0057H28.3048ZM37.1417 26.0514C36.3759 26.0514 35.7731 25.8314 35.3331 25.3914C34.8931 24.9514 34.6731 24.3 34.6731 23.4371V20H35.3074V23.4114C35.3074 24.12 35.4674 24.6429 35.7874 24.98C36.1074 25.3171 36.5588 25.4857 37.1417 25.4857C37.7302 25.4857 38.1845 25.3171 38.5045 24.98C38.8245 24.6429 38.9845 24.12 38.9845 23.4114V20H39.6017V23.4371C39.6017 24.3 39.3817 24.9514 38.9417 25.3914C38.5074 25.8314 37.9074 26.0514 37.1417 26.0514ZM42.5245 26.0429C42.153 26.0429 41.8016 25.9914 41.4702 25.8886C41.1387 25.78 40.8787 25.6457 40.6902 25.4857L40.9645 25.0057C41.1473 25.1429 41.3816 25.2629 41.6673 25.3657C41.953 25.4629 42.253 25.5114 42.5673 25.5114C42.9959 25.5114 43.3045 25.4457 43.493 25.3143C43.6816 25.1771 43.7759 24.9971 43.7759 24.7743C43.7759 24.6086 43.7216 24.48 43.613 24.3886C43.5102 24.2914 43.373 24.22 43.2016 24.1743C43.0302 24.1229 42.8387 24.08 42.6273 24.0457C42.4159 24.0114 42.2045 23.9714 41.993 23.9257C41.7873 23.88 41.5987 23.8143 41.4273 23.7286C41.2559 23.6371 41.1159 23.5143 41.0073 23.36C40.9045 23.2057 40.853 23 40.853 22.7429C40.853 22.4971 40.9216 22.2771 41.0587 22.0829C41.1959 21.8886 41.3959 21.7371 41.6587 21.6286C41.9273 21.5143 42.253 21.4571 42.6359 21.4571C42.9273 21.4571 43.2187 21.4971 43.5102 21.5771C43.8016 21.6514 44.0416 21.7514 44.2302 21.8771L43.9645 22.3657C43.7645 22.2286 43.5502 22.1314 43.3216 22.0743C43.093 22.0114 42.8645 21.98 42.6359 21.98C42.2302 21.98 41.9302 22.0514 41.7359 22.1943C41.5473 22.3314 41.453 22.5086 41.453 22.7257C41.453 22.8971 41.5045 23.0314 41.6073 23.1286C41.7159 23.2257 41.8559 23.3029 42.0273 23.36C42.2045 23.4114 42.3959 23.4543 42.6016 23.4886C42.813 23.5229 43.0216 23.5657 43.2273 23.6171C43.4387 23.6629 43.6302 23.7286 43.8016 23.8143C43.9787 23.8943 44.1187 24.0114 44.2216 24.1657C44.3302 24.3143 44.3845 24.5114 44.3845 24.7571C44.3845 25.02 44.3102 25.2486 44.1616 25.4429C44.0187 25.6314 43.8073 25.78 43.5273 25.8886C43.253 25.9914 42.9187 26.0429 42.5245 26.0429Z" fill="#B2BEC3"/>
<path d="M25 0.5C25.9283 0.5 26.8185 0.868749 27.4749 1.52513C28.1313 2.1815 28.5 3.07174 28.5 4C28.5 4.92826 28.1313 5.8185 27.4749 6.47487C26.8185 7.13125 25.9283 7.5 25 7.5C24.0717 7.5 23.1815 7.13125 22.5251 6.47487C21.8687 5.8185 21.5 4.92826 21.5 4C21.5 3.07174 21.8687 2.1815 22.5251 1.52513C23.1815 0.868749 24.0717 0.5 25 0.5ZM18 3C18.56 3 19.08 3.15 19.53 3.42C19.38 4.85 19.8 6.27 20.66 7.38C20.16 8.34 19.16 9 18 9C17.2044 9 16.4413 8.68393 15.8787 8.12132C15.3161 7.55871 15 6.79565 15 6C15 5.20435 15.3161 4.44129 15.8787 3.87868C16.4413 3.31607 17.2044 3 18 3ZM32 3C32.7956 3 33.5587 3.31607 34.1213 3.87868C34.6839 4.44129 35 5.20435 35 6C35 6.79565 34.6839 7.55871 34.1213 8.12132C33.5587 8.68393 32.7956 9 32 9C30.84 9 29.84 8.34 29.34 7.38C30.2119 6.25442 30.6166 4.8362 30.47 3.42C30.92 3.15 31.44 3 32 3ZM18.5 13.25C18.5 11.18 21.41 9.5 25 9.5C28.59 9.5 31.5 11.18 31.5 13.25V15H18.5V13.25ZM13 15V13.5C13 12.11 14.89 10.94 17.45 10.6C16.86 11.28 16.5 12.22 16.5 13.25V15H13ZM37 15H33.5V13.25C33.5 12.22 33.14 11.28 32.55 10.6C35.11 10.94 37 12.11 37 13.5V15Z" fill="#B2BEC3"/>
</svg>
