<svg width="50" height="30" viewBox="0 0 50 30" fill="none" xmlns="http://www.w3.org/2000/svg">
<path d="M17.1983 27.5356C17.0726 27.5356 16.9754 27.5042 16.9069 27.4414C16.844 27.3728 16.8126 27.2756 16.8126 27.1499V21.8785C16.8126 21.7528 16.844 21.6585 16.9069 21.5956C16.9754 21.5271 17.0726 21.4928 17.1983 21.4928H19.2297C19.6469 21.4928 19.9983 21.5556 20.284 21.6814C20.5754 21.8014 20.7983 21.9785 20.9526 22.2128C21.1069 22.4471 21.184 22.7328 21.184 23.0699C21.184 23.4471 21.0726 23.7614 20.8497 24.0128C20.6326 24.2642 20.3354 24.4299 19.9583 24.5099V24.3899C20.3869 24.4414 20.7211 24.5956 20.9611 24.8528C21.2069 25.1099 21.3297 25.4499 21.3297 25.8728C21.3297 26.4099 21.1554 26.8214 20.8069 27.1071C20.4583 27.3928 19.9669 27.5356 19.3326 27.5356H17.1983ZM17.4983 26.9699H19.264C19.7211 26.9699 20.064 26.8785 20.2926 26.6956C20.5211 26.5128 20.6354 26.2356 20.6354 25.8642C20.6354 25.4871 20.5211 25.2099 20.2926 25.0328C20.064 24.8499 19.7211 24.7585 19.264 24.7585H17.4983V26.9699ZM17.4983 24.1928H19.1269C19.5726 24.1928 19.9097 24.1014 20.1383 23.9185C20.3726 23.7356 20.4897 23.4728 20.4897 23.1299C20.4897 22.7756 20.3726 22.5099 20.1383 22.3328C19.9097 22.1499 19.5726 22.0585 19.1269 22.0585H17.4983V24.1928ZM23.7107 27.6128C23.2993 27.6128 22.985 27.4871 22.7678 27.2356C22.5507 26.9842 22.4421 26.6242 22.4421 26.1556V21.7842C22.4421 21.6699 22.4707 21.5842 22.5278 21.5271C22.585 21.4642 22.6707 21.4328 22.785 21.4328C22.8936 21.4328 22.9793 21.4642 23.0421 21.5271C23.105 21.5842 23.1364 21.6699 23.1364 21.7842V26.1042C23.1364 26.4128 23.1964 26.6442 23.3164 26.7985C23.4421 26.9471 23.625 27.0214 23.865 27.0214C23.9164 27.0214 23.9621 27.0185 24.0021 27.0128C24.0421 27.0071 24.0821 27.0042 24.1221 27.0042C24.185 26.9985 24.2278 27.0128 24.2507 27.0471C24.2793 27.0814 24.2936 27.1499 24.2936 27.2528C24.2936 27.3556 24.2707 27.4328 24.225 27.4842C24.1793 27.5356 24.105 27.5699 24.0021 27.5871C23.9564 27.5928 23.9078 27.5985 23.8564 27.6042C23.805 27.6099 23.7564 27.6128 23.7107 27.6128ZM26.5994 27.6128C26.1937 27.6128 25.8423 27.5242 25.5451 27.3471C25.248 27.1699 25.0166 26.9214 24.8508 26.6014C24.6908 26.2756 24.6108 25.8928 24.6108 25.4528C24.6108 25.1214 24.6566 24.8242 24.748 24.5614C24.8394 24.2928 24.9737 24.0642 25.1508 23.8756C25.328 23.6871 25.5366 23.5442 25.7766 23.4471C26.0223 23.3442 26.2966 23.2928 26.5994 23.2928C27.0051 23.2928 27.3566 23.3814 27.6537 23.5585C27.9508 23.7356 28.1794 23.9871 28.3394 24.3128C28.5051 24.6328 28.588 25.0128 28.588 25.4528C28.588 25.7842 28.5423 26.0814 28.4508 26.3442C28.3594 26.6071 28.2251 26.8356 28.048 27.0299C27.8708 27.2185 27.6594 27.3642 27.4137 27.4671C27.1737 27.5642 26.9023 27.6128 26.5994 27.6128ZM26.5994 27.0556C26.8566 27.0556 27.0823 26.9928 27.2766 26.8671C27.4708 26.7414 27.6194 26.5585 27.7223 26.3185C27.8308 26.0785 27.8851 25.7899 27.8851 25.4528C27.8851 24.9328 27.768 24.5356 27.5337 24.2614C27.3051 23.9871 26.9937 23.8499 26.5994 23.8499C26.3366 23.8499 26.108 23.9128 25.9137 24.0385C25.7251 24.1585 25.5766 24.3385 25.468 24.5785C25.3651 24.8128 25.3137 25.1042 25.3137 25.4528C25.3137 25.9671 25.4308 26.3642 25.6651 26.6442C25.8994 26.9185 26.2108 27.0556 26.5994 27.0556ZM31.4051 29.1556C31.1022 29.1556 30.8051 29.1185 30.5137 29.0442C30.228 28.9756 29.968 28.8642 29.7337 28.7099C29.6651 28.6699 29.6194 28.6214 29.5965 28.5642C29.5794 28.5071 29.5765 28.4499 29.588 28.3928C29.5994 28.3414 29.6251 28.2928 29.6651 28.2471C29.7051 28.2071 29.7508 28.1814 29.8022 28.1699C29.8594 28.1585 29.9165 28.1671 29.9737 28.1956C30.2251 28.3499 30.4651 28.4556 30.6937 28.5128C30.9222 28.5699 31.148 28.5985 31.3708 28.5985C31.7765 28.5985 32.0822 28.4899 32.288 28.2728C32.4994 28.0556 32.6051 27.7414 32.6051 27.3299V26.3614H32.6908C32.6051 26.6928 32.4222 26.9556 32.1422 27.1499C31.868 27.3442 31.5451 27.4414 31.1737 27.4414C30.7908 27.4414 30.4594 27.3556 30.1794 27.1842C29.8994 27.0071 29.6822 26.7614 29.528 26.4471C29.3794 26.1328 29.3051 25.7699 29.3051 25.3585C29.3051 25.0499 29.348 24.7699 29.4337 24.5185C29.5194 24.2614 29.6422 24.0442 29.8022 23.8671C29.968 23.6842 30.1651 23.5442 30.3937 23.4471C30.628 23.3442 30.888 23.2928 31.1737 23.2928C31.5508 23.2928 31.8765 23.3899 32.1508 23.5842C32.4251 23.7728 32.6022 24.0299 32.6822 24.3556L32.5965 24.4585V23.6614C32.5965 23.5471 32.6251 23.4614 32.6822 23.4042C32.7451 23.3414 32.8308 23.3099 32.9394 23.3099C33.0537 23.3099 33.1394 23.3414 33.1965 23.4042C33.2537 23.4614 33.2822 23.5471 33.2822 23.6614V27.2356C33.2822 27.8699 33.1222 28.3471 32.8022 28.6671C32.488 28.9928 32.0222 29.1556 31.4051 29.1556ZM31.3022 26.8756C31.5708 26.8756 31.8022 26.8156 31.9965 26.6956C32.1908 26.5699 32.3394 26.3928 32.4422 26.1642C32.5508 25.9356 32.6051 25.6671 32.6051 25.3585C32.6051 24.8956 32.488 24.5299 32.2537 24.2614C32.0194 23.9871 31.7022 23.8499 31.3022 23.8499C31.0394 23.8499 30.8108 23.9128 30.6165 24.0385C30.4222 24.1585 30.2708 24.3328 30.1622 24.5614C30.0594 24.7842 30.008 25.0499 30.008 25.3585C30.008 25.8214 30.1251 26.1899 30.3594 26.4642C30.5937 26.7385 30.908 26.8756 31.3022 26.8756Z" fill="#B2BEC3"/>
<path d="M17 14.1667H24.0833V15.5833H17V14.1667ZM17 9.91667H24.0833V11.3333H17V9.91667ZM32.5833 7.08333H18.4167C18.0409 7.08333 17.6806 6.93408 17.4149 6.6684C17.1493 6.40272 17 6.04239 17 5.66667V1.41667C17 1.04094 17.1493 0.680609 17.4149 0.414932C17.6806 0.149255 18.0409 0 18.4167 0H32.5833C32.9591 0 33.3194 0.149255 33.5851 0.414932C33.8507 0.680609 34 1.04094 34 1.41667V5.66667C34 6.04239 33.8507 6.40272 33.5851 6.6684C33.3194 6.93408 32.9591 7.08333 32.5833 7.08333ZM18.4167 1.41667V5.66667H32.5833V1.41667H18.4167ZM32.5833 17H28.3333C27.9576 17 27.5973 16.8507 27.3316 16.5851C27.0659 16.3194 26.9167 15.9591 26.9167 15.5833V11.3333C26.9167 10.9576 27.0659 10.5973 27.3316 10.3316C27.5973 10.0659 27.9576 9.91667 28.3333 9.91667H32.5833C32.9591 9.91667 33.3194 10.0659 33.5851 10.3316C33.8507 10.5973 34 10.9576 34 11.3333V15.5833C34 15.9591 33.8507 16.3194 33.5851 16.5851C33.3194 16.8507 32.9591 17 32.5833 17ZM28.3333 11.3333V15.5833H32.5833V11.3333H28.3333Z" fill="#B2BEC3"/>
</svg>
