<svg width="50" height="29" viewBox="0 0 50 29" fill="none" xmlns="http://www.w3.org/2000/svg">
<rect width="50" height="27.8571" transform="translate(0 0.214233)" fill="#E4E6E8"/>
<g clip-path="url(#clip0_1083_1629)">
<path d="M29.6667 2.21419H29V0.880859H27.6667V2.21419H22.3333V0.880859H21V2.21419H20.3333C19.6 2.21419 19 2.81419 19 3.54753V12.8809C19 13.2345 19.1405 13.5736 19.3905 13.8237C19.6406 14.0737 19.9797 14.2142 20.3333 14.2142H29.6667C30.4067 14.2142 31 13.6209 31 12.8809V3.54753C31 3.1939 30.8595 2.85477 30.6095 2.60472C30.3594 2.35467 30.0203 2.21419 29.6667 2.21419ZM29.6667 12.8809H20.3333V6.21419H29.6667V12.8809ZM20.3333 4.88086V3.54753H29.6667V4.88086H20.3333ZM21.6667 7.54753H28.3333V8.88086H21.6667V7.54753ZM21.6667 10.2142H26.3333V11.5475H21.6667V10.2142Z" fill="#272F35"/>
</g>
<path d="M13.3871 26.0714C13.2614 26.0714 13.1643 26.04 13.0957 25.9771C13.0328 25.9086 13.0014 25.8114 13.0014 25.6857V20.4143C13.0014 20.2886 13.0328 20.1943 13.0957 20.1314C13.1643 20.0628 13.2614 20.0286 13.3871 20.0286H16.5757C16.6728 20.0286 16.7471 20.0543 16.7985 20.1057C16.85 20.1571 16.8757 20.2286 16.8757 20.32C16.8757 20.4171 16.85 20.4914 16.7985 20.5428C16.7471 20.5943 16.6728 20.62 16.5757 20.62H13.6871V22.7114H16.3957C16.4928 22.7114 16.5671 22.7371 16.6185 22.7886C16.67 22.8343 16.6957 22.9057 16.6957 23.0028C16.6957 23.1 16.67 23.1743 16.6185 23.2257C16.5671 23.2771 16.4928 23.3028 16.3957 23.3028H13.6871V25.48H16.5757C16.6728 25.48 16.7471 25.5057 16.7985 25.5571C16.85 25.6086 16.8757 25.68 16.8757 25.7714C16.8757 25.8686 16.85 25.9428 16.7985 25.9943C16.7471 26.0457 16.6728 26.0714 16.5757 26.0714H13.3871ZM19.3119 26.1314C19.2147 26.1314 19.129 26.1057 19.0547 26.0543C18.9804 25.9971 18.9176 25.9114 18.8661 25.7971L17.3833 22.3343C17.3433 22.2486 17.329 22.1686 17.3404 22.0943C17.3519 22.02 17.3861 21.96 17.4433 21.9143C17.5004 21.8686 17.5804 21.8457 17.6833 21.8457C17.7747 21.8457 17.8461 21.8657 17.8976 21.9057C17.949 21.9457 17.9947 22.0171 18.0347 22.12L19.4404 25.5571H19.209L20.6404 22.12C20.6804 22.0171 20.7261 21.9457 20.7776 21.9057C20.829 21.8657 20.9033 21.8457 21.0004 21.8457C21.0919 21.8457 21.1604 21.8686 21.2061 21.9143C21.2576 21.96 21.2861 22.02 21.2919 22.0943C21.3033 22.1628 21.2919 22.24 21.2576 22.3257L19.7576 25.7971C19.7176 25.9114 19.6576 25.9971 19.5776 26.0543C19.5033 26.1057 19.4147 26.1314 19.3119 26.1314ZM23.9217 26.1486C23.4817 26.1486 23.1017 26.0628 22.7817 25.8914C22.4674 25.7143 22.2217 25.4657 22.0445 25.1457C21.8731 24.8257 21.7874 24.4428 21.7874 23.9971C21.7874 23.5628 21.8731 23.1857 22.0445 22.8657C22.216 22.54 22.4502 22.2857 22.7474 22.1028C23.0502 21.92 23.3988 21.8286 23.7931 21.8286C24.0731 21.8286 24.3245 21.8771 24.5474 21.9743C24.7702 22.0657 24.9588 22.2 25.1131 22.3771C25.2731 22.5543 25.3931 22.7686 25.4731 23.02C25.5588 23.2714 25.6017 23.5543 25.6017 23.8686C25.6017 23.96 25.576 24.0286 25.5245 24.0743C25.4731 24.1143 25.3988 24.1343 25.3017 24.1343H22.3188V23.68H25.1388L25.0017 23.7914C25.0017 23.4828 24.956 23.2228 24.8645 23.0114C24.7731 22.7943 24.6388 22.6286 24.4617 22.5143C24.2902 22.4 24.0731 22.3428 23.8102 22.3428C23.5188 22.3428 23.2702 22.4114 23.0645 22.5486C22.8645 22.68 22.7131 22.8657 22.6102 23.1057C22.5074 23.34 22.456 23.6143 22.456 23.9286V23.98C22.456 24.5057 22.5817 24.9057 22.8331 25.18C23.0902 25.4543 23.4531 25.5914 23.9217 25.5914C24.116 25.5914 24.3074 25.5657 24.496 25.5143C24.6902 25.4628 24.8788 25.3771 25.0617 25.2571C25.1417 25.2057 25.2131 25.1828 25.276 25.1886C25.3445 25.1886 25.3988 25.2086 25.4388 25.2486C25.4788 25.2828 25.5045 25.3286 25.516 25.3857C25.5331 25.4371 25.5274 25.4943 25.4988 25.5571C25.476 25.62 25.4274 25.6743 25.3531 25.72C25.1645 25.8571 24.9417 25.9628 24.6845 26.0371C24.4274 26.1114 24.1731 26.1486 23.9217 26.1486ZM26.8808 26.1314C26.7665 26.1314 26.6808 26.1 26.6236 26.0371C26.5665 25.9743 26.5379 25.8857 26.5379 25.7714V22.1971C26.5379 22.0828 26.5665 21.9971 26.6236 21.94C26.6808 21.8771 26.7636 21.8457 26.8722 21.8457C26.9808 21.8457 27.0636 21.8771 27.1208 21.94C27.1836 21.9971 27.215 22.0828 27.215 22.1971V22.9343L27.1208 22.8314C27.2408 22.5 27.435 22.2514 27.7036 22.0857C27.9779 21.9143 28.2922 21.8286 28.6465 21.8286C28.9779 21.8286 29.2522 21.8886 29.4693 22.0086C29.6922 22.1286 29.8579 22.3114 29.9665 22.5571C30.075 22.7971 30.1293 23.1028 30.1293 23.4743V25.7714C30.1293 25.8857 30.0979 25.9743 30.035 26.0371C29.9779 26.1 29.895 26.1314 29.7865 26.1314C29.6722 26.1314 29.5836 26.1 29.5208 26.0371C29.4636 25.9743 29.435 25.8857 29.435 25.7714V23.5171C29.435 23.1286 29.3579 22.8457 29.2036 22.6686C29.055 22.4857 28.815 22.3943 28.4836 22.3943C28.1008 22.3943 27.795 22.5143 27.5665 22.7543C27.3436 22.9886 27.2322 23.3028 27.2322 23.6971V25.7714C27.2322 26.0114 27.115 26.1314 26.8808 26.1314ZM33.0124 26.1486C32.6867 26.1486 32.4124 26.0914 32.1896 25.9771C31.9724 25.8571 31.8096 25.6857 31.701 25.4628C31.5924 25.2343 31.5381 24.9571 31.5381 24.6314V22.4457H30.9638C30.8667 22.4457 30.7924 22.4228 30.741 22.3771C30.6896 22.3257 30.6638 22.2571 30.6638 22.1714C30.6638 22.0857 30.6896 22.02 30.741 21.9743C30.7924 21.9286 30.8667 21.9057 30.9638 21.9057H31.5381V20.92C31.5381 20.8057 31.5696 20.72 31.6324 20.6628C31.6953 20.6 31.781 20.5686 31.8896 20.5686C31.9981 20.5686 32.081 20.6 32.1381 20.6628C32.201 20.72 32.2324 20.8057 32.2324 20.92V21.9057H33.3124C33.4096 21.9057 33.4838 21.9286 33.5353 21.9743C33.5867 22.02 33.6124 22.0857 33.6124 22.1714C33.6124 22.2571 33.5867 22.3257 33.5353 22.3771C33.4838 22.4228 33.4096 22.4457 33.3124 22.4457H32.2324V24.5628C32.2324 24.8886 32.301 25.1371 32.4381 25.3086C32.5753 25.4743 32.7981 25.5571 33.1067 25.5571C33.2153 25.5571 33.3067 25.5457 33.381 25.5228C33.461 25.5 33.5267 25.4886 33.5781 25.4886C33.6296 25.4828 33.6724 25.5 33.7067 25.54C33.741 25.58 33.7581 25.6486 33.7581 25.7457C33.7581 25.8143 33.7438 25.8771 33.7153 25.9343C33.6924 25.9914 33.6496 26.0314 33.5867 26.0543C33.5181 26.0771 33.4267 26.0971 33.3124 26.1143C33.2038 26.1371 33.1038 26.1486 33.0124 26.1486ZM35.6748 26.1486C35.4176 26.1486 35.1576 26.1171 34.8948 26.0543C34.6376 25.9914 34.3976 25.8828 34.1748 25.7286C34.1176 25.6886 34.0776 25.6428 34.0548 25.5914C34.0319 25.5343 34.0233 25.48 34.0291 25.4286C34.0405 25.3714 34.0633 25.3228 34.0976 25.2828C34.1376 25.2428 34.1833 25.22 34.2348 25.2143C34.2919 25.2028 34.3548 25.2143 34.4233 25.2486C34.6462 25.3857 34.8605 25.4828 35.0662 25.54C35.2776 25.5914 35.4862 25.6171 35.6919 25.6171C36.0176 25.6171 36.2633 25.5571 36.4291 25.4371C36.5948 25.3171 36.6776 25.1543 36.6776 24.9486C36.6776 24.7886 36.6233 24.6628 36.5148 24.5714C36.4062 24.4743 36.2348 24.4 36.0005 24.3486L35.2205 24.1771C34.8605 24.1028 34.5919 23.9743 34.4148 23.7914C34.2433 23.6086 34.1576 23.3714 34.1576 23.08C34.1576 22.8228 34.2233 22.6028 34.3548 22.42C34.4919 22.2314 34.6833 22.0857 34.9291 21.9828C35.1748 21.88 35.4605 21.8286 35.7862 21.8286C36.0376 21.8286 36.2748 21.8628 36.4976 21.9314C36.7262 21.9943 36.9319 22.0971 37.1148 22.24C37.1719 22.28 37.2091 22.3286 37.2262 22.3857C37.2491 22.4371 37.2519 22.4914 37.2348 22.5486C37.2233 22.6 37.1976 22.6457 37.1576 22.6857C37.1176 22.72 37.0691 22.74 37.0119 22.7457C36.9548 22.7514 36.8948 22.7343 36.8319 22.6943C36.6605 22.58 36.4862 22.4971 36.3091 22.4457C36.1319 22.3886 35.9576 22.36 35.7862 22.36C35.4662 22.36 35.2233 22.4228 35.0576 22.5486C34.8919 22.6743 34.8091 22.84 34.8091 23.0457C34.8091 23.2057 34.8605 23.3371 34.9633 23.44C35.0662 23.5428 35.2262 23.6171 35.4433 23.6628L36.2233 23.8257C36.5948 23.9057 36.8719 24.0343 37.0548 24.2114C37.2433 24.3828 37.3376 24.6171 37.3376 24.9143C37.3376 25.2914 37.1862 25.5914 36.8833 25.8143C36.5805 26.0371 36.1776 26.1486 35.6748 26.1486Z" fill="#272F35"/>
<defs>
<clipPath id="clip0_1083_1629">
<rect width="16" height="16" fill="white" transform="translate(17 0.214233)"/>
</clipPath>
</defs>
</svg>
