<svg width="50" height="30" viewBox="0 0 50 30" fill="none" xmlns="http://www.w3.org/2000/svg">
<path d="M18.8036 27.2954C18.6836 27.2954 18.5893 27.2639 18.5208 27.2011C18.4579 27.1325 18.4265 27.0354 18.4265 26.9096V21.5782C18.4265 21.4525 18.4579 21.3582 18.5208 21.2954C18.5893 21.2268 18.6865 21.1925 18.8122 21.1925H21.9236C22.0208 21.1925 22.0951 21.2182 22.1465 21.2696C22.1979 21.3211 22.2236 21.3925 22.2236 21.4839C22.2236 21.5811 22.1979 21.6554 22.1465 21.7068C22.0951 21.7582 22.0208 21.7839 21.9236 21.7839H19.1293V23.8925H21.7436C21.8408 23.8925 21.9151 23.9182 21.9665 23.9696C22.0236 24.0211 22.0522 24.0925 22.0522 24.1839C22.0522 24.2811 22.0236 24.3554 21.9665 24.4068C21.9151 24.4582 21.8408 24.4839 21.7436 24.4839H19.1293V26.9096C19.1293 27.1668 19.0208 27.2954 18.8036 27.2954ZM22.4313 27.2954C22.3399 27.2954 22.2656 27.2754 22.2085 27.2354C22.1571 27.1896 22.1256 27.1325 22.1142 27.0639C22.1085 26.9896 22.1256 26.9068 22.1656 26.8154L24.5228 21.4496C24.5742 21.3354 24.6342 21.2554 24.7028 21.2096C24.7771 21.1582 24.8571 21.1325 24.9428 21.1325C25.0285 21.1325 25.1056 21.1582 25.1742 21.2096C25.2485 21.2554 25.3085 21.3354 25.3542 21.4496L27.7199 26.8154C27.7656 26.9068 27.7828 26.9896 27.7714 27.0639C27.7656 27.1382 27.7371 27.1954 27.6856 27.2354C27.6342 27.2754 27.5628 27.2954 27.4713 27.2954C27.3685 27.2954 27.2856 27.2696 27.2228 27.2182C27.1599 27.1611 27.1085 27.0811 27.0685 26.9782L26.4342 25.5125L26.7771 25.6925H23.0913L23.4428 25.5125L22.8171 26.9782C22.7656 27.0868 22.7113 27.1668 22.6542 27.2182C22.5971 27.2696 22.5228 27.2954 22.4313 27.2954ZM24.9342 22.0154L23.5542 25.2639L23.3485 25.1011H26.5199L26.3313 25.2639L24.9514 22.0154H24.9342ZM33.2639 28.3754C33.321 28.4611 33.3439 28.5382 33.3325 28.6068C33.3268 28.6811 33.2982 28.7411 33.2468 28.7868C33.201 28.8382 33.1439 28.8696 33.0753 28.8811C33.0068 28.8982 32.9353 28.8896 32.861 28.8554C32.7925 28.8268 32.7325 28.7696 32.681 28.6839L32.1239 27.8011C32.0325 27.6411 31.9068 27.5182 31.7468 27.4325C31.5868 27.3525 31.3953 27.3125 31.1725 27.3125L31.7553 27.0639C32.0239 27.0639 32.2353 27.1125 32.3896 27.2096C32.5496 27.3011 32.7068 27.4725 32.861 27.7239L33.2639 28.3754ZM31.1725 27.3125C30.6125 27.3125 30.1239 27.1868 29.7068 26.9354C29.2953 26.6782 28.9753 26.3182 28.7468 25.8554C28.5239 25.3925 28.4125 24.8439 28.4125 24.2096C28.4125 23.7296 28.4753 23.3011 28.601 22.9239C28.7325 22.5411 28.9182 22.2182 29.1582 21.9554C29.3982 21.6868 29.6868 21.4811 30.0239 21.3382C30.3668 21.1896 30.7496 21.1154 31.1725 21.1154C31.7439 21.1154 32.2353 21.2411 32.6468 21.4925C33.0639 21.7439 33.3839 22.1011 33.6068 22.5639C33.8353 23.0211 33.9496 23.5668 33.9496 24.2011C33.9496 24.6811 33.8839 25.1125 33.7525 25.4954C33.621 25.8782 33.4353 26.2039 33.1953 26.4725C32.9553 26.7411 32.6639 26.9496 32.321 27.0982C31.9839 27.2411 31.601 27.3125 31.1725 27.3125ZM31.1725 26.6868C31.6068 26.6868 31.9725 26.5896 32.2696 26.3954C32.5725 26.2011 32.8039 25.9182 32.9639 25.5468C33.1239 25.1754 33.2039 24.7296 33.2039 24.2096C33.2039 23.4268 33.0268 22.8211 32.6725 22.3925C32.3239 21.9582 31.8239 21.7411 31.1725 21.7411C30.7496 21.7411 30.3868 21.8382 30.0839 22.0325C29.7868 22.2268 29.5582 22.5096 29.3982 22.8811C29.2382 23.2468 29.1582 23.6896 29.1582 24.2096C29.1582 24.9868 29.3353 25.5954 29.6896 26.0354C30.0439 26.4696 30.5382 26.6868 31.1725 26.6868Z" fill="#272F35"/>
<path d="M30.4286 9.28836H22.4286L19.762 12.1463V0.714489C19.762 0.524995 19.8322 0.343262 19.9572 0.209269C20.0822 0.0752763 20.2518 0 20.4286 0H30.4286C30.6054 0 30.775 0.0752763 30.9 0.209269C31.0251 0.343262 31.0953 0.524995 31.0953 0.714489V8.57387C31.0953 8.76336 31.0251 8.9451 30.9 9.07909C30.775 9.21308 30.6054 9.28836 30.4286 9.28836ZM33.762 5.00142V15.0043L31.0953 12.1463H23.762C23.5852 12.1463 23.4156 12.071 23.2906 11.937C23.1655 11.8031 23.0953 11.6213 23.0953 11.4318V10.7173H32.4286V4.28694H33.0953C33.2721 4.28694 33.4417 4.36221 33.5667 4.4962C33.6917 4.6302 33.762 4.81193 33.762 5.00142ZM23.8886 1.42898C23.3086 1.42898 22.842 1.57188 22.482 1.85053C22.1353 2.14347 21.962 2.55073 21.9686 3.11517L21.9753 3.13661H23.262C23.2686 2.92226 23.3286 2.75793 23.4486 2.64361C23.5721 2.5339 23.7283 2.47555 23.8886 2.47928C24.0953 2.47928 24.2686 2.55073 24.3886 2.67933C24.5086 2.81509 24.562 3.00085 24.562 3.2152C24.562 3.44384 24.5153 3.63675 24.4086 3.80108C24.3153 3.96542 24.1753 4.10831 24.002 4.22263C23.662 4.46556 23.4286 4.6799 23.302 4.87282C23.1686 5.05858 23.0953 5.35867 23.0953 5.71591H24.4286C24.4286 5.49442 24.4553 5.3158 24.5153 5.18719C24.5753 5.05858 24.6886 4.92998 24.8553 4.81566C25.1553 4.64418 25.402 4.43698 25.5953 4.15118C25.7886 3.86539 25.8886 3.57245 25.8886 3.2152C25.8886 2.67219 25.7086 2.23635 25.3486 1.91483C24.9953 1.59331 24.5086 1.42898 23.8886 1.42898ZM23.0953 6.4304V7.85938H24.4286V6.4304H23.0953ZM27.0953 7.85938H28.4286V6.4304H27.0953V7.85938ZM27.0953 1.42898V5.71591H28.4286V1.42898H27.0953Z" fill="#272F35"/>
</svg>
