<svg width="50" height="27" viewBox="0 0 50 27" fill="none" xmlns="http://www.w3.org/2000/svg">
<path d="M17.1636 19H17.7893V25H17.1636V19ZM13.4093 25H12.775V19H13.4093V25ZM17.2236 22.2314H13.3407V21.6743H17.2236V22.2314ZM21.3848 25.0429C20.9505 25.0429 20.5591 24.9457 20.2105 24.7514C19.8677 24.5514 19.5963 24.28 19.3963 23.9371C19.1963 23.5886 19.0963 23.1914 19.0963 22.7457C19.0963 22.2943 19.1963 21.8971 19.3963 21.5543C19.5963 21.2114 19.8677 20.9429 20.2105 20.7486C20.5534 20.5543 20.9448 20.4571 21.3848 20.4571C21.8305 20.4571 22.2248 20.5543 22.5677 20.7486C22.9163 20.9429 23.1877 21.2114 23.382 21.5543C23.582 21.8971 23.682 22.2943 23.682 22.7457C23.682 23.1914 23.582 23.5886 23.382 23.9371C23.1877 24.28 22.9163 24.5514 22.5677 24.7514C22.2191 24.9457 21.8248 25.0429 21.3848 25.0429ZM21.3848 24.5029C21.7105 24.5029 21.9991 24.4314 22.2505 24.2886C22.502 24.14 22.6991 23.9343 22.842 23.6714C22.9905 23.4029 23.0648 23.0943 23.0648 22.7457C23.0648 22.3914 22.9905 22.0829 22.842 21.82C22.6991 21.5571 22.502 21.3543 22.2505 21.2114C21.9991 21.0629 21.7134 20.9886 21.3934 20.9886C21.0734 20.9886 20.7877 21.0629 20.5363 21.2114C20.2848 21.3543 20.0848 21.5571 19.9363 21.82C19.7877 22.0829 19.7134 22.3914 19.7134 22.7457C19.7134 23.0943 19.7877 23.4029 19.9363 23.6714C20.0848 23.9343 20.2848 24.14 20.5363 24.2886C20.7877 24.4314 21.0705 24.5029 21.3848 24.5029ZM30.4787 20.4571C30.8444 20.4571 31.1616 20.5286 31.4301 20.6714C31.7044 20.8086 31.9159 21.02 32.0644 21.3057C32.2187 21.5914 32.2959 21.9514 32.2959 22.3857V25H31.6873V22.4457C31.6873 21.9714 31.573 21.6143 31.3444 21.3743C31.1216 21.1286 30.8044 21.0057 30.393 21.0057C30.0844 21.0057 29.8159 21.0714 29.5873 21.2029C29.3644 21.3286 29.1901 21.5143 29.0644 21.76C28.9444 22 28.8844 22.2914 28.8844 22.6343V25H28.2759V22.4457C28.2759 21.9714 28.1616 21.6143 27.933 21.3743C27.7044 21.1286 27.3844 21.0057 26.973 21.0057C26.6701 21.0057 26.4044 21.0714 26.1759 21.2029C25.9473 21.3286 25.7701 21.5143 25.6444 21.76C25.5244 22 25.4644 22.2914 25.4644 22.6343V25H24.8559V20.5H25.4387V21.7171L25.3444 21.5029C25.4816 21.1771 25.7016 20.9229 26.0044 20.74C26.313 20.5514 26.6759 20.4571 27.093 20.4571C27.533 20.4571 27.9073 20.5686 28.2159 20.7914C28.5244 21.0086 28.7244 21.3371 28.8159 21.7771L28.5759 21.6829C28.7073 21.3171 28.9387 21.0229 29.2701 20.8C29.6073 20.5714 30.0101 20.4571 30.4787 20.4571ZM35.7891 25.0429C35.3205 25.0429 34.9091 24.9457 34.5548 24.7514C34.2005 24.5514 33.9234 24.28 33.7234 23.9371C33.5234 23.5886 33.4234 23.1914 33.4234 22.7457C33.4234 22.3 33.5177 21.9057 33.7063 21.5629C33.9005 21.22 34.1634 20.9514 34.4948 20.7571C34.832 20.5571 35.2091 20.4571 35.6263 20.4571C36.0491 20.4571 36.4234 20.5543 36.7491 20.7486C37.0805 20.9371 37.3405 21.2057 37.5291 21.5543C37.7177 21.8971 37.812 22.2943 37.812 22.7457C37.812 22.7743 37.8091 22.8057 37.8034 22.84C37.8034 22.8686 37.8034 22.9 37.8034 22.9343H33.8863V22.48H37.4777L37.2377 22.66C37.2377 22.3343 37.1663 22.0457 37.0234 21.7943C36.8863 21.5371 36.6977 21.3371 36.4577 21.1943C36.2177 21.0514 35.9405 20.98 35.6263 20.98C35.3177 20.98 35.0405 21.0514 34.7948 21.1943C34.5491 21.3371 34.3577 21.5371 34.2205 21.7943C34.0834 22.0514 34.0148 22.3457 34.0148 22.6771V22.7714C34.0148 23.1143 34.0891 23.4171 34.2377 23.68C34.392 23.9371 34.6034 24.14 34.872 24.2886C35.1463 24.4314 35.4577 24.5029 35.8063 24.5029C36.0805 24.5029 36.3348 24.4543 36.5691 24.3571C36.8091 24.26 37.0148 24.1114 37.1863 23.9114L37.5291 24.3057C37.3291 24.5457 37.0777 24.7286 36.7748 24.8543C36.4777 24.98 36.1491 25.0429 35.7891 25.0429Z" fill="#B2BEC3"/>
<path d="M32.3 6.75787V13.613C32.3 14.1226 31.8869 14.5356 31.3774 14.5356H19.6226C19.1131 14.5356 18.7 14.1226 18.7 13.613V6.75787M34 8.31342L25.5 0.535645L17 8.31342" stroke="#B2BEC3" stroke-width="0.922619" stroke-linecap="round" stroke-linejoin="round"/>
</svg>
